<svg xmlns="http://www.w3.org/2000/svg" xmlns:xlink="http://www.w3.org/1999/xlink" width="500" zoomAndPan="magnify" viewBox="0 0 375 374.999991" height="500" preserveAspectRatio="xMidYMid meet" version="1.0"><defs><filter x="0%" y="0%" width="100%" height="100%" id="45909f10fe"><feColorMatrix values="0 0 0 0 1 0 0 0 0 1 0 0 0 0 1 0 0 0 1 0" color-interpolation-filters="sRGB"/></filter><g/><mask id="299d8261b4"><g filter="url(#45909f10fe)"><rect x="-37.5" width="450" fill="#000000" y="-37.499999" height="449.999989" fill-opacity="0.7882"/></g></mask><clipPath id="2454a0dcbb"><path d="M 139 19 L 288.527344 19 L 288.527344 208 L 139 208 Z M 139 19 " clip-rule="nonzero"/></clipPath><clipPath id="d5131c006b"><path d="M 2 0.519531 L 140 0.519531 L 140 207 L 2 207 Z M 2 0.519531 " clip-rule="nonzero"/></clipPath><clipPath id="6a8324dbbb"><rect x="0" width="289" y="0" height="296"/></clipPath><mask id="e599f2b4c2"><g filter="url(#45909f10fe)"><rect x="-37.5" width="450" fill="#000000" y="-37.499999" height="449.999989" fill-opacity="0.7882"/></g></mask><clipPath id="15fc73414d"><path d="M 118 0.199219 L 124 0.199219 L 124 22 L 118 22 Z M 118 0.199219 " clip-rule="nonzero"/></clipPath><clipPath id="7908509b57"><path d="M 118 219 L 124 219 L 124 240.921875 L 118 240.921875 Z M 118 219 " clip-rule="nonzero"/></clipPath><clipPath id="0ae349390c"><path d="M 220 117 L 241.441406 117 L 241.441406 124 L 220 124 Z M 220 117 " clip-rule="nonzero"/></clipPath><clipPath id="b32c15ff92"><rect x="0" width="242" y="0" height="241"/></clipPath></defs><rect x="-37.5" width="450" fill="#ffffff" y="-37.499999" height="449.999989" fill-opacity="1"/><rect x="-37.5" width="450" fill="#ffffff" y="-37.499999" height="449.999989" fill-opacity="1"/><rect x="-37.5" width="450" fill="#ffffff" y="-37.499999" height="449.999989" fill-opacity="1"/><g mask="url(#299d8261b4)"><g transform="matrix(1, 0, 0, 1, 48, 34)"><g clip-path="url(#6a8324dbbb)"><g clip-path="url(#2454a0dcbb)"><path fill="#231f20" d="M 170.558594 21.464844 C 175.746094 22.394531 180.820312 23.816406 185.84375 25.347656 C 187.097656 25.730469 188.355469 26.222656 189.609375 26.660156 C 190.867188 27.097656 192.121094 27.535156 193.320312 28.027344 L 196.980469 29.503906 L 198.835938 30.269531 L 200.636719 31.089844 C 210.300781 35.519531 219.46875 40.984375 227.933594 47.492188 C 236.394531 54.054688 244.089844 61.601562 250.96875 69.914062 C 257.792969 78.28125 263.632812 87.523438 268.382812 97.3125 L 269.3125 99.117188 L 270.128906 100.976562 L 271.765625 104.75 C 272.039062 105.351562 272.3125 106.007812 272.53125 106.664062 L 273.242188 108.578125 C 273.734375 109.835938 274.222656 111.144531 274.660156 112.402344 L 275.917969 116.285156 C 276.351562 117.597656 276.789062 118.910156 277.117188 120.222656 C 277.828125 122.847656 278.589844 125.527344 279.136719 128.207031 C 281.539062 138.925781 282.683594 149.972656 282.574219 161.019531 C 282.46875 171.355469 281.210938 181.800781 278.863281 191.96875 L 288.800781 195.46875 L 263.414062 207.773438 L 251.132812 182.347656 L 260.957031 185.789062 C 263.414062 177.535156 265.105469 169.003906 265.871094 160.308594 C 266.691406 150.574219 266.417969 140.675781 265.054688 130.886719 C 264.78125 128.425781 264.234375 126.019531 263.796875 123.558594 C 263.578125 122.355469 263.304688 121.152344 262.976562 119.949219 L 262.105469 116.339844 C 261.777344 115.136719 261.394531 113.933594 261.066406 112.785156 L 260.523438 110.980469 C 260.359375 110.382812 260.195312 109.78125 259.976562 109.234375 L 258.773438 105.734375 L 258.175781 103.984375 L 257.464844 102.234375 C 253.808594 92.992188 249.113281 84.078125 243.378906 75.820312 C 237.648438 67.5625 230.933594 59.960938 223.402344 53.125 C 215.867188 46.34375 207.515625 40.4375 198.5625 35.464844 L 196.871094 34.535156 L 195.179688 33.660156 L 191.738281 31.964844 C 190.59375 31.363281 189.390625 30.925781 188.246094 30.378906 C 187.042969 29.886719 185.898438 29.339844 184.695312 28.847656 C 179.894531 26.988281 175.089844 25.238281 170.066406 23.925781 C 160.132812 21.191406 149.8125 19.550781 139.386719 19.167969 C 149.757812 18.675781 160.242188 19.496094 170.558594 21.464844 Z M 170.558594 21.464844 " fill-opacity="1" fill-rule="nonzero"/></g><path fill="#231f20" d="M 6.242188 233.804688 L 14.976562 206.898438 L 41.835938 215.648438 L 32.664062 220.296875 C 43.582031 239.4375 59.742188 255.84375 79.121094 267.105469 C 89.273438 273.011719 100.300781 277.550781 111.820312 280.449219 C 123.339844 283.347656 135.292969 284.714844 147.25 284.386719 C 159.203125 284.058594 171.214844 282.144531 182.730469 278.535156 C 194.25 274.925781 205.332031 269.675781 215.539062 262.949219 C 225.75 256.226562 235.082031 248.078125 243.164062 238.78125 C 251.242188 229.484375 258.066406 218.984375 263.359375 207.71875 C 258.828125 219.3125 252.605469 230.304688 245.019531 240.3125 C 237.429688 250.320312 228.421875 259.285156 218.324219 266.886719 C 208.226562 274.488281 197.035156 280.777344 185.132812 285.371094 C 173.234375 289.964844 160.621094 292.917969 147.792969 294.066406 C 134.964844 295.269531 121.972656 294.667969 109.199219 292.316406 C 96.425781 289.964844 83.925781 285.753906 72.1875 279.957031 C 49.316406 268.636719 29.5 250.867188 15.414062 229.101562 Z M 6.242188 233.804688 " fill-opacity="1" fill-rule="nonzero"/><g clip-path="url(#d5131c006b)"><path fill="#231f20" d="M 2.203125 145.925781 C 2.640625 124.761719 8.042969 103.546875 18.144531 84.515625 C 18.800781 83.3125 19.398438 82.109375 20.054688 80.960938 L 22.128906 77.460938 C 22.457031 76.859375 22.785156 76.3125 23.167969 75.710938 L 24.257812 74.015625 L 26.496094 70.625 L 28.84375 67.34375 L 30.042969 65.703125 C 30.425781 65.15625 30.863281 64.664062 31.300781 64.117188 L 33.8125 60.945312 C 34.683594 59.90625 35.558594 58.867188 36.429688 57.828125 C 43.472656 49.570312 51.605469 42.242188 60.449219 35.792969 C 61.542969 34.972656 62.6875 34.207031 63.835938 33.441406 C 64.980469 32.675781 66.074219 31.855469 67.273438 31.144531 C 69.621094 29.722656 71.914062 28.191406 74.316406 26.933594 C 75.519531 26.277344 76.71875 25.566406 77.917969 24.964844 L 81.632812 23.105469 L 83.488281 22.175781 L 85.398438 21.355469 L 89.164062 19.660156 C 98.71875 15.722656 108.707031 12.824219 118.917969 10.910156 L 118.042969 0.519531 L 139.332031 19.058594 L 120.828125 40.4375 L 120.117188 30.050781 C 111.601562 31.035156 103.140625 32.839844 94.953125 35.519531 L 91.511719 36.722656 L 89.765625 37.320312 L 88.074219 38.03125 L 84.6875 39.398438 C 83.597656 39.890625 82.449219 40.4375 81.359375 40.929688 C 79.121094 41.914062 76.992188 43.117188 74.808594 44.210938 C 73.714844 44.757812 72.679688 45.414062 71.585938 46.015625 C 70.550781 46.617188 69.457031 47.21875 68.421875 47.875 C 60.070312 53.015625 52.207031 59.085938 45.164062 66.140625 C 44.292969 67.015625 43.417969 67.890625 42.546875 68.765625 L 40.035156 71.5 C 39.597656 71.9375 39.160156 72.429688 38.777344 72.867188 L 37.578125 74.289062 L 35.175781 77.132812 L 32.882812 80.085938 L 31.738281 81.5625 C 31.355469 82.054688 31.027344 82.601562 30.644531 83.09375 L 28.515625 86.15625 C 27.804688 87.195312 27.152344 88.289062 26.496094 89.328125 C 15.796875 106.28125 9.027344 125.910156 7.0625 146.199219 C 4.988281 166.542969 7.664062 187.484375 14.976562 206.953125 C 6.132812 188.140625 1.65625 167.035156 2.203125 145.925781 Z M 2.203125 145.925781 " fill-opacity="1" fill-rule="nonzero"/></g></g></g></g><g mask="url(#e599f2b4c2)"><g transform="matrix(1, 0, 0, 1, 72, 67)"><g clip-path="url(#b32c15ff92)"><g clip-path="url(#15fc73414d)"><path fill="#231f20" d="M 118.234375 18.792969 L 118.234375 3.015625 C 118.234375 -0.550781 123.761719 -0.550781 123.761719 3.015625 L 123.761719 18.792969 C 123.761719 22.359375 118.234375 22.359375 118.234375 18.792969 Z M 118.234375 18.792969 " fill-opacity="1" fill-rule="nonzero"/></g><path fill="#231f20" d="M 68.183594 33.667969 L 59.828125 20.136719 C 57.949219 17.09375 62.734375 14.316406 64.605469 17.34375 L 72.960938 30.875 C 74.839844 33.917969 70.054688 36.695312 68.183594 33.667969 Z M 68.183594 33.667969 " fill-opacity="1" fill-rule="nonzero"/><path fill="#231f20" d="M 31.457031 72.335938 L 17.769531 64.179688 C 14.710938 62.355469 17.488281 57.574219 20.558594 59.40625 L 34.246094 67.558594 C 37.304688 69.382812 34.527344 74.164062 31.457031 72.335938 Z M 31.457031 72.335938 " fill-opacity="1" fill-rule="nonzero"/><path fill="#231f20" d="M 18.972656 123.332031 L 3.4375 123.332031 C -0.128906 123.332031 -0.128906 117.804688 3.4375 117.804688 L 18.972656 117.804688 C 22.539062 117.804688 22.539062 123.332031 18.972656 123.332031 Z M 18.972656 123.332031 " fill-opacity="1" fill-rule="nonzero"/><path fill="#231f20" d="M 34.445312 174.023438 L 20.558594 181.738281 C 17.441406 183.472656 14.652344 178.695312 17.769531 176.964844 L 31.652344 169.25 C 34.773438 167.515625 37.5625 172.292969 34.445312 174.023438 Z M 34.445312 174.023438 " fill-opacity="1" fill-rule="nonzero"/><path fill="#231f20" d="M 72.164062 210.410156 L 64.605469 223.796875 C 62.851562 226.902344 58.074219 224.113281 59.828125 221.003906 L 67.386719 207.617188 C 69.140625 204.515625 73.917969 207.300781 72.164062 210.410156 Z M 72.164062 210.410156 " fill-opacity="1" fill-rule="nonzero"/><g clip-path="url(#7908509b57)"><path fill="#231f20" d="M 123.761719 222.554688 L 123.761719 238.128906 C 123.761719 241.695312 118.234375 241.695312 118.234375 238.128906 L 118.234375 222.554688 C 118.234375 218.988281 123.761719 218.988281 123.761719 222.554688 Z M 123.761719 222.554688 " fill-opacity="1" fill-rule="nonzero"/></g><path fill="#231f20" d="M 174.699219 207.175781 L 182.164062 221.003906 C 183.855469 224.144531 179.082031 226.933594 177.386719 223.796875 L 169.925781 209.96875 C 168.234375 206.832031 173.007812 204.039062 174.699219 207.175781 Z M 174.699219 207.175781 " fill-opacity="1" fill-rule="nonzero"/><path fill="#231f20" d="M 210.53125 168.808594 L 224.21875 176.964844 C 227.277344 178.789062 224.5 183.570312 221.425781 181.738281 L 207.742188 173.582031 C 204.683594 171.761719 207.460938 166.980469 210.53125 168.808594 Z M 210.53125 168.808594 " fill-opacity="1" fill-rule="nonzero"/><g clip-path="url(#0ae349390c)"><path fill="#231f20" d="M 222.742188 117.804688 L 238.554688 117.804688 C 242.121094 117.804688 242.121094 123.332031 238.554688 123.332031 L 222.742188 123.332031 C 219.175781 123.332031 219.175781 117.804688 222.742188 117.804688 Z M 222.742188 117.804688 " fill-opacity="1" fill-rule="nonzero"/></g><path fill="#231f20" d="M 207.945312 67.109375 L 221.429688 59.40625 C 224.53125 57.636719 227.316406 62.414062 224.222656 64.179688 L 210.734375 71.882812 C 207.632812 73.65625 204.847656 68.878906 207.945312 67.109375 Z M 207.945312 67.109375 " fill-opacity="1" fill-rule="nonzero"/><path fill="#231f20" d="M 169.527344 31.328125 L 177.386719 17.347656 C 179.132812 14.238281 183.910156 17.023438 182.160156 20.136719 L 174.304688 34.121094 C 172.554688 37.230469 167.777344 34.441406 169.527344 31.328125 Z M 169.527344 31.328125 " fill-opacity="1" fill-rule="nonzero"/><path fill="#231f20" d="M 121.632812 127.625 L 121.246094 127.625 C 117.476562 127.625 114.332031 124.480469 114.332031 120.710938 C 114.332031 116.945312 117.476562 113.800781 121.246094 113.800781 L 121.632812 113.800781 C 125.402344 113.800781 128.546875 116.945312 128.546875 120.710938 C 128.546875 124.480469 125.402344 127.625 121.632812 127.625 Z M 121.632812 127.625 " fill-opacity="1" fill-rule="nonzero"/><path fill="#231f20" d="M 122.578125 120.304688 L 122.578125 182.410156 C 122.578125 184.195312 119.8125 184.195312 119.8125 182.410156 L 119.8125 120.304688 C 119.8125 118.519531 122.578125 118.519531 122.578125 120.304688 Z M 122.578125 120.304688 " fill-opacity="1" fill-rule="nonzero"/><path fill="#231f20" d="M 121.949219 121.410156 L 80.996094 192.273438 L 77.71875 197.941406 C 76.828125 199.484375 74.4375 198.09375 75.332031 196.546875 L 116.285156 125.6875 L 119.5625 120.015625 C 120.453125 118.472656 122.839844 119.867188 121.949219 121.410156 Z M 121.949219 121.410156 " fill-opacity="1" fill-rule="nonzero"/></g></g></g><g fill="#b4114a" fill-opacity="1"><g transform="translate(123.370266, 216.707472)"><g><path d="M 59.375 -147.0625 C 81.1875 -147.0625 97.894531 -143.179688 109.5 -135.421875 C 121.113281 -127.660156 126.921875 -115.597656 126.921875 -99.234375 C 126.921875 -89.023438 124.578125 -80.738281 119.890625 -74.375 C 115.210938 -68.007812 108.46875 -63.007812 99.65625 -59.375 C 102.59375 -55.738281 105.664062 -51.578125 108.875 -46.890625 C 112.09375 -42.203125 115.273438 -37.304688 118.421875 -32.203125 C 121.578125 -27.097656 124.625 -21.78125 127.5625 -16.25 C 130.5 -10.726562 133.222656 -5.3125 135.734375 0 L 99.03125 0 C 96.363281 -4.757812 93.664062 -9.582031 90.9375 -14.46875 C 88.21875 -19.363281 85.421875 -24.117188 82.546875 -28.734375 C 79.679688 -33.359375 76.847656 -37.734375 74.046875 -41.859375 C 71.253906 -45.984375 68.460938 -49.722656 65.671875 -53.078125 L 49.515625 -53.078125 L 49.515625 0 L 16.78125 0 L 16.78125 -143.296875 C 23.914062 -144.691406 31.289062 -145.664062 38.90625 -146.21875 C 46.53125 -146.78125 53.351562 -147.0625 59.375 -147.0625 Z M 61.265625 -119.171875 C 58.878906 -119.171875 56.742188 -119.097656 54.859375 -118.953125 C 52.972656 -118.816406 51.191406 -118.675781 49.515625 -118.53125 L 49.515625 -79.09375 L 58.75 -79.09375 C 71.050781 -79.09375 79.859375 -80.628906 85.171875 -83.703125 C 90.492188 -86.785156 93.15625 -92.03125 93.15625 -99.4375 C 93.15625 -106.570312 90.460938 -111.644531 85.078125 -114.65625 C 79.691406 -117.664062 71.753906 -119.171875 61.265625 -119.171875 Z M 61.265625 -119.171875 "/></g></g></g><g fill="#f26507" fill-opacity="1"><g transform="translate(233.23767, 332.222316)"><g><path d="M 16.78125 0 L 16.78125 -145.390625 L 114.96875 -145.390625 L 114.96875 -117.90625 L 49.515625 -117.90625 L 49.515625 -89.375 L 107.625 -89.375 L 107.625 -62.515625 L 49.515625 -62.515625 L 49.515625 -27.484375 L 119.796875 -27.484375 L 119.796875 0 Z M 16.78125 0 "/></g></g></g><g fill="#490a3d" fill-opacity="1"><g transform="translate(0.0000045, 329.90124)"><g><path d="M 44.265625 -72.796875 C 44.265625 -65.660156 45.140625 -59.222656 46.890625 -53.484375 C 48.640625 -47.753906 51.15625 -42.828125 54.4375 -38.703125 C 57.726562 -34.578125 61.75 -31.394531 66.5 -29.15625 C 71.257812 -26.925781 76.71875 -25.8125 82.875 -25.8125 C 88.882812 -25.8125 94.300781 -26.925781 99.125 -29.15625 C 103.945312 -31.394531 108.003906 -34.578125 111.296875 -38.703125 C 114.585938 -42.828125 117.101562 -47.753906 118.84375 -53.484375 C 120.59375 -59.222656 121.46875 -65.660156 121.46875 -72.796875 C 121.46875 -79.929688 120.59375 -86.398438 118.84375 -92.203125 C 117.101562 -98.003906 114.585938 -102.96875 111.296875 -107.09375 C 108.003906 -111.226562 103.945312 -114.410156 99.125 -116.640625 C 94.300781 -118.878906 88.882812 -120 82.875 -120 C 76.71875 -120 71.257812 -118.84375 66.5 -116.53125 C 61.75 -114.226562 57.726562 -111.015625 54.4375 -106.890625 C 51.15625 -102.765625 48.640625 -97.800781 46.890625 -92 C 45.140625 -86.195312 44.265625 -79.796875 44.265625 -72.796875 Z M 155.25 -72.796875 C 155.25 -60.347656 153.394531 -49.40625 149.6875 -39.96875 C 145.976562 -30.53125 140.90625 -22.628906 134.46875 -16.265625 C 128.039062 -9.898438 120.382812 -5.109375 111.5 -1.890625 C 102.625 1.328125 93.082031 2.9375 82.875 2.9375 C 72.9375 2.9375 63.5625 1.328125 54.75 -1.890625 C 45.945312 -5.109375 38.253906 -9.898438 31.671875 -16.265625 C 25.097656 -22.628906 19.921875 -30.53125 16.140625 -39.96875 C 12.367188 -49.40625 10.484375 -60.347656 10.484375 -72.796875 C 10.484375 -85.242188 12.441406 -96.1875 16.359375 -105.625 C 20.273438 -115.070312 25.554688 -123.007812 32.203125 -129.4375 C 38.847656 -135.875 46.539062 -140.703125 55.28125 -143.921875 C 64.019531 -147.140625 73.21875 -148.75 82.875 -148.75 C 92.800781 -148.75 102.171875 -147.140625 110.984375 -143.921875 C 119.796875 -140.703125 127.488281 -135.875 134.0625 -129.4375 C 140.632812 -123.007812 145.804688 -115.070312 149.578125 -105.625 C 153.359375 -96.1875 155.25 -85.242188 155.25 -72.796875 Z M 155.25 -72.796875 "/></g></g></g></svg>